<svg width="320" height="106" viewBox="0 0 320 106" fill="none" xmlns="http://www.w3.org/2000/svg">
<path d="M92.887 51.8734C92.1896 59.4819 89.6353 66.8018 85.4492 73.1882C81.2631 79.5747 75.5737 84.8316 68.8821 88.496C62.1905 92.1603 54.7021 94.1196 47.0767 94.2012C39.4513 94.2828 31.9229 92.4842 25.1547 88.9639L27.0466 86.6238C29.7637 83.3623 33.1117 80.6857 36.8888 78.7553C40.666 76.8248 44.7941 75.6805 49.0245 75.3913H49.3281C56.5394 74.529 63.1298 70.8799 67.6953 65.2211C72.2609 59.5623 74.441 52.3411 73.7711 45.0957C73.1012 37.8503 69.6344 31.1532 64.1091 26.4309C58.5837 21.7087 51.4365 19.3345 44.1898 19.8141C37.1607 20.5644 30.6628 23.9121 25.9643 29.2037C21.2658 34.4954 18.7039 41.3513 18.7785 48.4334V96.6394C18.7785 99.1219 17.7943 101.503 16.0422 103.258C14.2902 105.014 11.9139 106 9.43616 106C6.95841 106 4.58213 105.014 2.83009 103.258C1.07805 101.503 0.0937757 99.1219 0.0937757 96.6394V47.6144C0.0916895 45.6038 0.216512 43.5951 0.46748 41.6003C1.82715 29.3118 8.00332 18.0679 17.6373 10.3419C27.2713 2.61586 39.574 -0.959249 51.8389 0.403037C64.1038 1.76532 75.3262 7.95339 83.0374 17.606C90.7485 27.2585 94.3168 39.5849 92.9571 51.8734H92.887Z" fill="#F5A800"/>
<path d="M138.08 6.94393H122.806V47.334H132.031V34.6506H138.08C139.942 34.7274 141.801 34.4262 143.544 33.7652C145.287 33.1041 146.878 32.0969 148.223 30.8041C149.567 29.5112 150.637 27.9593 151.368 26.2417C152.099 24.5241 152.475 22.6762 152.475 20.809C152.475 18.9419 152.099 17.094 151.368 15.3764C150.637 13.6587 149.567 12.1069 148.223 10.814C146.878 9.52112 145.287 8.51392 143.544 7.85289C141.801 7.19186 139.942 6.89063 138.08 6.96736V6.94393ZM138.08 25.9689H132.031V15.5789H138.08C139.456 15.5789 140.774 16.1262 141.747 17.1005C142.719 18.0748 143.265 19.3961 143.265 20.7739C143.265 22.1517 142.719 23.4731 141.747 24.4474C140.774 25.4216 139.456 25.9689 138.08 25.9689Z" fill="#1D1D1B"/>
<path d="M163.422 23.6055V18.4807H154.757V47.334H163.422V34.2997C163.422 28.5899 168.467 27.139 172.04 27.7475V17.919C170.185 17.8158 168.346 18.3128 166.794 19.3367C165.242 20.3606 164.06 21.8571 163.422 23.6055V23.6055Z" fill="#1D1D1B"/>
<path d="M187.805 17.6615C184.8 17.6707 181.865 18.5721 179.371 20.2516C176.877 21.9312 174.935 24.3136 173.791 27.0981C172.648 29.8825 172.353 32.944 172.945 35.8961C173.537 38.8481 174.989 41.5581 177.117 43.684C179.246 45.8098 181.955 47.2561 184.903 47.8401C187.851 48.4241 190.906 48.1198 193.682 46.9654C196.457 45.811 198.829 43.8583 200.498 41.3542C202.166 38.85 203.057 35.9065 203.057 32.8955C203.073 30.8866 202.688 28.8948 201.927 27.0364C201.165 25.1779 200.042 23.4902 198.622 22.0719C197.202 20.6535 195.514 19.533 193.657 18.7757C191.8 18.0184 189.81 17.6397 187.805 17.6615V17.6615ZM187.805 39.7051C186.454 39.7424 185.122 39.3749 183.98 38.6496C182.838 37.9244 181.938 36.8743 181.395 35.6338C180.851 34.3932 180.69 33.0185 180.931 31.6855C181.171 30.3524 181.804 29.1217 182.746 28.1505C183.689 27.1793 184.899 26.5119 186.222 26.2336C187.546 25.9553 188.922 26.0788 190.175 26.5882C191.427 27.0977 192.5 27.97 193.256 29.0935C194.011 30.2171 194.415 31.5408 194.415 32.8955C194.46 33.7858 194.322 34.676 194.008 35.5102C193.694 36.3445 193.212 37.1049 192.592 37.744C191.972 38.3831 191.226 38.8871 190.403 39.2246C189.579 39.562 188.695 39.7256 187.805 39.7051V39.7051Z" fill="#1D1D1B"/>
<path d="M227.767 6.94393V21.1951C226.691 20.0037 225.363 19.0683 223.88 18.4569C222.397 17.8456 220.796 17.5739 219.195 17.6616C211.651 17.6616 205.438 24.3074 205.438 32.8956C205.438 41.4837 211.651 48.1062 219.195 48.1062C220.795 48.1968 222.394 47.9288 223.877 47.3215C225.36 46.7143 226.689 45.7831 227.767 44.596V47.334H236.408V6.94393H227.767ZM220.923 39.9393C219.531 39.9718 218.161 39.588 216.987 38.8366C215.814 38.0853 214.89 37.0006 214.335 35.721C213.779 34.4414 213.617 33.025 213.869 31.6526C214.12 30.2802 214.774 29.014 215.747 28.0158C216.72 27.0175 217.968 26.3325 219.332 26.048C220.695 25.7636 222.112 25.8927 223.402 26.4189C224.692 26.9451 225.796 27.8445 226.574 29.0022C227.351 30.16 227.766 31.5236 227.767 32.919C227.826 33.8424 227.692 34.7682 227.371 35.6361C227.051 36.504 226.551 37.2946 225.906 37.9566C225.261 38.6186 224.484 39.1373 223.625 39.4789C222.767 39.8204 221.846 39.9773 220.923 39.9393V39.9393Z" fill="#1D1D1B"/>
<path d="M260.209 18.4804V34.2292C260.209 38.3244 258.014 40.1731 254.861 40.1731C254.166 40.2312 253.467 40.133 252.816 39.8854C252.164 39.6379 251.576 39.2474 251.094 38.7425C250.613 38.2377 250.25 37.6312 250.033 36.9677C249.816 36.3041 249.75 35.6004 249.839 34.9079V18.5272H241.221V36.2417C241.221 44.0109 246.172 48.1528 251.964 48.1528C253.518 48.2676 255.077 48.0089 256.511 47.3984C257.945 46.7879 259.213 45.8431 260.209 44.6427V47.3338H268.827V18.4804H260.209Z" fill="#1D1D1B"/>
<path d="M287.699 39.5884C285.999 39.4875 284.401 38.7397 283.233 37.4979C282.065 36.256 281.414 34.6139 281.414 32.9074C281.414 31.2009 282.065 29.5588 283.233 28.317C284.401 27.0751 285.999 26.3273 287.699 26.2265C288.839 26.1663 289.971 26.4367 290.962 27.0053C291.952 27.5739 292.757 28.4167 293.281 29.4324L300.825 25.0564C299.46 22.7679 297.519 20.8785 295.197 19.577C292.874 18.2754 290.252 17.6073 287.591 17.6394C284.93 17.6715 282.324 18.4028 280.034 19.76C277.744 21.1172 275.849 23.0529 274.539 25.3737C273.229 27.6945 272.55 30.319 272.57 32.985C272.589 35.6511 273.307 38.2653 274.651 40.5664C275.995 42.8675 277.918 44.7748 280.228 46.098C282.539 47.4211 285.155 48.1136 287.816 48.1063C290.449 48.154 293.047 47.4904 295.336 46.1851C297.625 44.8798 299.521 42.9811 300.825 40.6882L293.281 36.359C292.763 37.381 291.959 38.2302 290.968 38.8035C289.977 39.3767 288.842 39.6494 287.699 39.5884V39.5884Z" fill="#1D1D1B"/>
<path d="M320 26.7879V18.4806H314.068V10.4072L305.45 13.0047V18.4806H300.778V26.7879H305.45V36.9907C305.45 45.064 308.719 48.4571 320 47.3105V39.4712C316.193 39.7052 314.068 39.4712 314.068 36.9907V26.7879H320Z" fill="#1D1D1B"/>
<path d="M138.922 75.1574C132.663 73.2619 131.682 71.9748 131.682 70.1495C131.682 68.3243 133.13 67.0606 136.003 67.0606C137.519 66.9744 139.022 67.3843 140.286 68.2284C141.55 69.0725 142.506 70.3052 143.009 71.7408L150.764 67.201C149.477 64.3947 147.392 62.0315 144.77 60.4079C142.149 58.7843 139.107 57.9726 136.026 58.0746C129.019 58.0746 122.48 62.5676 122.48 70.3601C122.48 78.1526 128.365 80.9608 134.344 82.6456C140.323 84.3305 142.706 85.2899 142.706 87.7704C142.706 89.3383 141.608 91.0465 137.241 91.0465C135.413 91.1633 133.597 90.6807 132.067 89.6717C130.538 88.6626 129.378 87.1821 128.762 85.4538L120.821 90.1339C123.157 96.0544 128.505 100.126 136.937 100.126C145.368 100.126 151.908 95.446 151.908 87.7237C151.885 79.1355 145.041 76.9826 138.922 75.1574Z" fill="#1D1D1B"/>
<path d="M169.728 69.6349C166.723 69.6488 163.79 70.5546 161.298 72.238C158.806 73.9214 156.868 76.3068 155.729 79.093C154.59 81.8792 154.3 84.9412 154.896 87.8923C155.493 90.8434 156.949 93.5512 159.08 95.6738C161.212 97.7964 163.923 99.2385 166.872 99.818C169.821 100.397 172.876 100.088 175.649 98.9297C178.423 97.7711 180.792 95.8148 182.457 93.3081C184.122 90.8013 185.008 87.8565 185.003 84.8455C185.019 82.8357 184.634 80.843 183.871 78.9844C183.107 77.1257 181.981 75.4384 180.559 74.0216C179.136 72.6048 177.445 71.4869 175.585 70.7336C173.725 69.9803 171.734 69.6068 169.728 69.6349V69.6349ZM169.728 91.6552C168.381 91.6876 167.054 91.3177 165.916 90.5926C164.779 89.8674 163.883 88.8198 163.341 87.5828C162.8 86.3459 162.637 84.9755 162.875 83.646C163.113 82.3165 163.74 81.0878 164.677 80.1163C165.614 79.1449 166.817 78.4744 168.135 78.1902C169.453 77.9061 170.826 78.021 172.078 78.5204C173.331 79.0199 174.407 79.8812 175.17 80.995C175.932 82.1088 176.347 83.4247 176.362 84.7753C176.417 85.6734 176.285 86.5732 175.975 87.4174C175.664 88.2617 175.181 89.0319 174.557 89.679C173.933 90.3262 173.182 90.8361 172.351 91.1764C171.519 91.5166 170.626 91.6796 169.728 91.6552Z" fill="#1D1D1B"/>
<path d="M202.448 91.5146C200.748 91.4138 199.151 90.666 197.982 89.4241C196.814 88.1823 196.163 86.5402 196.163 84.8337C196.163 83.1271 196.814 81.4851 197.982 80.2432C199.151 79.0014 200.748 78.2536 202.448 78.1527C203.588 78.0934 204.72 78.367 205.706 78.9403C206.693 79.5136 207.493 80.3619 208.007 81.382L215.551 76.9827C213.841 74.1097 211.237 71.8783 208.139 70.6311C205.041 69.384 201.62 69.1899 198.401 70.0786C195.182 70.9673 192.343 72.8898 190.32 75.551C188.297 78.2122 187.201 81.4651 187.201 84.8103C187.201 88.1556 188.297 91.4084 190.32 94.0696C192.343 96.7307 195.182 98.6532 198.401 99.5419C201.62 100.431 205.041 100.237 208.139 98.9894C211.237 97.7422 213.841 95.5109 215.551 92.6378L208.007 88.3087C207.492 89.3264 206.691 90.1715 205.704 90.7409C204.717 91.3102 203.586 91.5791 202.448 91.5146Z" fill="#1D1D1B"/>
<path d="M234.752 69.6349C233.198 69.5201 231.639 69.7788 230.205 70.3893C228.771 70.9999 227.503 71.9446 226.507 73.1451V58.8939H217.865V99.2605H226.507V83.5117C226.507 79.4165 228.702 77.5679 231.855 77.5679C232.548 77.5103 233.244 77.6082 233.894 77.8545C234.544 78.1007 235.13 78.489 235.612 78.9911C236.093 79.4933 236.456 80.0966 236.675 80.7572C236.894 81.4178 236.963 82.1189 236.877 82.8097V99.1903H245.495V81.4758C245.495 73.7769 240.544 69.6349 234.752 69.6349Z" fill="#1D1D1B"/>
</svg>
